<svg width="117" height="146" viewBox="0 0 117 146" fill="none" xmlns="http://www.w3.org/2000/svg">
<path d="M64.653 48.4253H75.3644V37.7498H80.31V48.4253H91.019V53.3554H80.31V64.0298H75.3644V53.3554H64.653V48.4253Z" fill="#B22E2E"/>
<path d="M94.7864 5.84H92.43V12.848H63.18V5.84H60.8868H58.5V13.3491V99.6981V110.96H60.8868H63.18V99.28H92.43V110.96H94.7864H97.11V99.697V13.3491V5.84H94.7864ZM94.77 98.112H60.84V15.184H94.77V98.112Z" fill="#2A4036"/>
<path d="M31.3689 13.1727C31.3689 9.12324 34.6613 5.84 38.7258 5.84C42.7881 5.84 46.084 9.12324 46.084 13.1727C46.084 17.2245 42.7881 20.5077 38.7258 20.5077C34.6613 20.5077 31.3689 17.2245 31.3689 13.1727Z" fill="#2A4036"/>
<path fill-rule="evenodd" clip-rule="evenodd" d="M54.6682 60.8446H50.9886V66.9544C50.9886 66.9544 54.6682 66.84 54.6682 63.2869C54.6682 59.7339 54.6682 60.8446 54.6682 60.8446Z" fill="#2A4036"/>
<path fill-rule="evenodd" clip-rule="evenodd" d="M22.7823 61.0058H26.4619V67.1191C26.4619 67.1191 22.7823 67.0035 22.7823 63.4516C22.7823 59.8985 22.7823 61.0058 22.7823 61.0058Z" fill="#2A4036"/>
<path fill-rule="evenodd" clip-rule="evenodd" d="M27.6869 22.9524C27.6869 22.9524 20.3299 23.4791 20.3299 30.2851C20.3299 37.0945 21.5561 59.6229 21.5561 59.6229H26.4607V30.2851C26.4607 30.2851 26.8398 30.2851 27.0797 30.2851C27.3172 30.2851 27.6869 30.2851 27.6869 30.2851L28.9142 110.96H37.4985V69.4014C37.4985 69.4014 37.6565 66.9544 38.7258 66.9544C39.7952 66.9544 39.9508 69.4014 39.9508 69.4014V110.96H48.5363L49.7624 30.2851H50.9898V59.6229H55.8944C55.8944 59.6229 57.1206 37.0945 57.1206 30.2851C57.1206 23.4791 49.7624 22.9524 49.7624 22.9524H27.6869Z" fill="#2A4036"/>
</svg>
