<svg width="124" height="124" viewBox="0 0 124 124" fill="none" xmlns="http://www.w3.org/2000/svg">
<path d="M39.2492 27.8844C39.6354 28.1729 39.795 28.6776 39.6457 29.136L35.5572 41.5022L47.9409 31.2013C48.1417 31.0313 48.394 30.9386 48.6566 30.9386H63.2752C71.828 30.9386 78.8825 24.0885 78.9853 15.6728C79.042 11.5009 77.456 7.56605 74.5262 4.59939C71.5964 1.63272 67.6881 0 63.5173 0H48.7444C44.553 0 40.4491 1.72541 37.4729 4.73322C34.543 7.69988 32.9519 11.573 32.9983 15.647C33.0498 20.5142 35.3257 24.9745 39.234 27.8844H39.2492ZM68.9544 11.3515C70.9677 11.3515 72.6 12.9894 72.6 14.998C72.6 17.0118 70.9625 18.6445 68.9544 18.6445C66.9412 18.6445 65.3089 17.0066 65.3089 14.998C65.3089 12.9842 66.9463 11.3515 68.9544 11.3515ZM56.0043 11.3515C58.0176 11.3515 59.6499 12.9894 59.6499 14.998C59.6499 17.0118 58.0125 18.6445 56.0043 18.6445C53.9911 18.6445 52.3588 17.0066 52.3588 14.998C52.3588 12.9842 53.9962 11.3515 56.0043 11.3515ZM43.0543 11.3515C45.0624 11.3515 46.6998 12.9894 46.6998 14.998C46.6998 17.0118 45.0624 18.6445 43.0543 18.6445C41.041 18.6445 39.4087 17.0066 39.4087 14.998C39.4087 12.9842 41.0461 11.3515 43.0543 11.3515ZM66.7143 14.998C66.7143 13.7619 67.7184 12.7524 68.9593 12.7524C70.1951 12.7524 71.2043 13.7568 71.2043 14.998C71.2043 16.2341 70.2002 17.2436 68.9593 17.2436C67.7235 17.2436 66.7143 16.2392 66.7143 14.998ZM53.7642 14.998C53.7642 13.7619 54.7683 12.7524 56.0092 12.7524C57.245 12.7524 58.2542 13.7568 58.2542 14.998C58.2542 16.2341 57.2501 17.2436 56.0092 17.2436C54.7734 17.2436 53.7642 16.2392 53.7642 14.998ZM40.8141 14.998C40.8141 13.7619 41.8182 12.7524 43.0591 12.7524C44.2949 12.7524 45.3041 13.7568 45.3041 14.998C45.3041 16.2341 44.3001 17.2436 43.0591 17.2436C41.8233 17.2436 40.8141 16.2392 40.8141 14.998ZM39.7483 97.416C39.7998 97.6735 39.8255 97.9516 39.8255 98.2349V120.898C39.8255 122.505 38.5794 123.828 37.0501 123.859C36.288 123.88 35.562 123.586 35.0161 123.045C34.4703 122.51 34.1665 121.794 34.1665 121.026C34.1665 120.97 34.1614 120.918 34.1511 120.862L31.3808 102.186C31.2984 101.635 30.8247 101.228 30.2686 101.228H18.7139C18.1578 101.228 17.6841 101.635 17.6017 102.186L14.8314 120.862C14.8211 120.918 14.8211 120.97 14.8211 121.026C14.8211 121.794 14.5225 122.51 13.9715 123.045C13.4257 123.581 12.6997 123.869 11.9375 123.859C10.403 123.828 9.15697 122.499 9.15697 120.898V97.7721C9.15697 97.1128 9.09003 96.4536 8.95616 95.8149C8.95616 95.8149 6.96346 86.1886 4.86769 76.0371C2.52488 64.737 0.0635726 52.7929 0.0584316 52.7929C-0.255665 51.2632 0.727818 49.7644 2.25716 49.4451C3.78651 49.1258 5.28489 50.1146 5.59901 51.6444L14.1002 92.7611C14.2084 93.2864 14.6666 93.6572 15.2022 93.6572H22.2668C23.7446 94.6152 25.5366 95.089 27.4159 94.9088L38.363 94.8882C39.0787 95.5526 39.5679 96.4334 39.743 97.412L39.7483 97.416ZM61.2201 119.707C61.4879 120.5 61.4313 121.355 61.0605 122.112C60.6846 122.864 60.041 123.425 59.2532 123.698C58.9236 123.807 58.5838 123.863 58.2439 123.863C56.8949 123.863 55.7002 123.003 55.2626 121.726C55.206 121.556 49.5779 104.817 46.612 95.8551C45.9787 93.934 44.192 92.6412 42.1632 92.6412H42.1529L27.3642 92.6721C27.3281 92.6721 27.2921 92.6773 27.2561 92.6773C25.7988 92.8266 24.4138 92.4249 23.3015 91.642C23.2758 91.6214 23.2449 91.6008 23.2191 91.5854C22.0915 90.7613 21.2624 89.5252 20.9587 88.047L16.1236 64.5088C15.758 62.7318 16.1082 60.9189 17.102 59.4047C18.0958 57.8905 19.6251 56.8552 21.4015 56.4947L26.9471 55.3513C28.0335 55.1298 29.1715 55.3771 30.0675 56.0363L36.0147 60.4091C37.163 61.2537 38.7078 61.3516 39.959 60.6614L52.5795 53.6414C53.2438 53.2705 54.0058 53.183 54.7318 53.389C55.4579 53.595 56.0603 54.074 56.4311 54.7332C57.188 56.0982 56.6937 57.8236 55.3343 58.5858L39.557 67.3621C38.7743 67.7948 37.8166 67.8308 37.003 67.4703L31.9259 65.168C31.5397 64.9929 31.0918 65.0496 30.7622 65.3122C30.4327 65.5749 30.2782 66.0024 30.3606 66.4144L33.5428 81.9229C33.8312 83.3238 35.0773 84.3384 36.5036 84.3384H48.0068C48.7483 84.3384 49.3971 84.8071 49.6289 85.5075C52.7184 94.7526 61.1218 119.454 61.2041 119.702L61.2201 119.707ZM92.2277 27.1482C92.2277 21.6063 96.7384 17.0945 102.279 17.0945C107.819 17.0945 112.33 21.6063 112.33 27.1482C112.33 32.69 107.819 37.2019 102.279 37.2019C96.7384 37.2019 92.2277 32.69 92.2277 27.1482ZM42.1935 68.4705H113.875V93.8256C113.875 95.0669 112.866 96.0764 111.625 96.0764H55.5757C54.0773 91.6469 52.6922 87.5368 51.7756 84.7968C51.235 83.1795 49.7263 82.0928 48.0167 82.0928H36.5135C36.1479 82.0928 35.8286 81.8353 35.7565 81.4748L33.0172 68.13L36.0861 69.5207C36.7503 69.8194 37.4558 69.9688 38.1817 69.9688C39.0365 69.9688 39.8913 69.7473 40.6533 69.3301L42.1981 68.47L42.1935 68.4705ZM76.7338 54.3888H88.6232C89.2153 54.3888 89.7096 53.9252 89.7457 53.3329C89.9053 50.7577 90.3893 46.0089 91.8208 43.1401C92.6549 41.4662 93.7208 39.9108 94.9926 38.5253C95.1316 38.3759 95.3273 38.2935 95.5332 38.2987C95.6465 38.2987 95.8576 38.3347 96.0224 38.5253C97.5105 40.3074 99.6885 41.3374 101.99 41.3529C104.647 41.3683 107.103 40.0549 108.586 37.835C108.782 37.5415 109.142 37.423 109.451 37.5518C111.042 38.2265 112.448 39.1742 113.632 40.3639C114.456 41.1983 115.162 42.1409 115.739 43.176C115.965 43.5829 116.083 44.0362 116.083 44.4894V59.241H97.6751C96.3363 59.241 95.2446 58.1491 95.2446 56.8099C95.2446 55.4708 96.3362 54.3841 97.6751 54.3841H108.947C109.564 54.3841 110.069 53.8794 110.069 53.2613V46.9829C110.069 46.3597 109.564 45.8601 108.947 45.8601C108.324 45.8601 107.824 46.3649 107.824 46.9829V52.1386H97.6803C95.1057 52.1386 93.0048 54.2348 93.0048 56.8152C93.0048 57.7063 93.2623 58.5355 93.6948 59.2463H76.7496C75.4108 59.2463 74.3244 58.1544 74.3244 56.8152C74.3244 55.476 75.4109 54.3894 76.7496 54.3894L76.7338 54.3888ZM123.581 63.263V64.4477C123.581 65.4262 122.788 66.2195 121.809 66.2195H115.105C115.069 66.2143 115.033 66.2092 114.997 66.2092H46.2565L54.7474 61.4914H121.81C122.788 61.4914 123.581 62.2844 123.581 63.263ZM9.47096 43.8505C9.47096 38.6537 13.6984 34.4201 18.899 34.4201C24.0945 34.4201 28.327 38.6485 28.327 43.8505C28.327 49.0473 24.0996 53.2809 18.899 53.2809C13.7035 53.2809 9.47096 49.0524 9.47096 43.8505Z" fill="#2A4036"/>
</svg>
