<svg width="152" height="152" viewBox="0 0 152 152" fill="none" xmlns="http://www.w3.org/2000/svg">
<path d="M146.543 141.067L141.325 146.286C140.432 147.18 138.981 147.18 138.093 146.286L114.11 122.305C113.216 121.416 113.216 119.966 114.11 119.074V119.078L119.329 113.859C120.217 112.965 121.668 112.965 122.561 113.859L146.541 137.839C147.434 138.729 147.434 140.179 146.543 141.067Z" fill="#F08A00"/>
<path d="M70.3252 79.048H77.1569C78.3425 79.048 79.3042 78.0879 79.3042 76.9023V70.0724H86.346V76.9023C86.346 78.0879 87.3078 79.048 88.4934 79.048H95.325V86.0932H88.4934C87.3078 86.0932 86.346 87.0533 86.346 88.2388V95.0688H79.3042V88.2388C79.3042 87.0533 78.3425 86.0932 77.1569 86.0932H70.3252V79.048Z" fill="#F08A00"/>
<path fill-rule="evenodd" clip-rule="evenodd" d="M77.1569 79.048H70.3252V86.0932H77.1569C78.3425 86.0932 79.3042 87.0533 79.3042 88.2388V95.0688H86.346V88.2388C86.346 87.0533 87.3078 86.0932 88.4934 86.0932H95.325V79.048H88.4934C87.3078 79.048 86.346 78.0879 86.346 76.9023V70.0724H79.3042V76.9023C79.3042 78.0879 78.3425 79.048 77.1569 79.048ZM75.0112 90.3862H68.1796C66.9923 90.3862 66.0322 89.4261 66.0322 88.2388V76.9023C66.0322 75.7168 66.994 74.755 68.1796 74.755H75.0112V67.925C75.0112 66.7395 75.9713 65.7777 77.1569 65.7777H88.4934C89.679 65.7777 90.639 66.7395 90.639 67.925V74.755H97.4724C98.6562 74.755 99.6197 75.7168 99.6197 76.9023V88.2388C99.6197 89.4261 98.6562 90.3862 97.4724 90.3862H90.639V97.2161C90.639 98.4017 89.679 99.3618 88.4934 99.3618H77.1569C75.973 99.3618 75.0112 98.4017 75.0112 97.2161V90.3862ZM59.3902 82.5723C59.3902 69.647 69.9033 59.1391 82.8251 59.1391C95.7452 59.1391 106.258 69.647 106.258 82.5723C106.258 95.4924 95.7452 106.006 82.8251 106.006C69.9033 106.006 59.3902 95.4924 59.3902 82.5723ZM82.8251 110.3C67.5355 110.3 55.0972 97.8602 55.0972 82.5723C55.0972 67.281 67.5355 54.8443 82.8251 54.8443C98.113 54.8443 110.553 67.281 110.553 82.5723C110.553 97.8602 98.113 110.3 82.8251 110.3ZM15.0248 111.161H24.2412V101.947H15.0248V111.161ZM28.536 99.7974C28.536 98.6118 27.5742 97.6518 26.3886 97.6518H12.8791C11.6935 97.6518 10.7317 98.6118 10.7317 99.7974V113.307C10.7317 114.492 11.6935 115.454 12.8791 115.454H26.3886C27.5742 115.454 28.536 114.492 28.536 113.307V99.7974ZM15.0248 75.5152H24.2412V66.2987H15.0248V75.5152ZM28.536 64.153C28.536 62.9692 27.5742 62.0074 26.3886 62.0074H12.8791C11.6935 62.0074 10.7317 62.9692 10.7317 64.153V77.6625C10.7317 78.8481 11.6935 79.8082 12.8791 79.8082H26.3886C27.5742 79.8082 28.536 78.8481 28.536 77.6625V64.153ZM38.1659 34.4075C36.982 34.4075 36.0202 35.3676 36.0202 36.5549C36.0202 37.7405 36.9803 38.7023 38.1659 38.7023H91.922C93.1093 38.7023 94.0694 37.7405 94.0694 36.5549C94.0694 35.3676 93.1093 34.4075 91.922 34.4075H38.1659ZM15.0248 39.8725H24.2412V30.656H15.0248V39.8725ZM28.536 28.5087C28.536 27.3231 27.5742 26.363 26.3886 26.363H12.8791C11.6935 26.363 10.7317 27.3231 10.7317 28.5087V42.0182C10.7317 43.202 11.6935 44.1655 12.8791 44.1655H26.3886C27.5742 44.1655 28.536 43.202 28.536 42.0182V28.5087Z" fill="#F08A00"/>
<path fill-rule="evenodd" clip-rule="evenodd" d="M149.577 134.799L125.598 110.821C123.876 109.101 121.439 108.542 119.243 109.125L113.23 103.11C117.204 97.2469 119.529 90.1744 119.529 82.5723C119.529 70.5678 113.739 59.8925 104.801 53.1924V25.9359C104.801 25.4166 104.613 24.9177 104.273 24.5282L83.5802 0.739708C83.1736 0.269916 82.5808 0 81.9607 0H2.14567C0.960083 0 0 0.9635 0 2.14737V138.529C0 139.714 0.961792 140.674 2.14567 140.674H102.655C103.841 140.674 104.801 139.714 104.801 138.529V114.416L109.378 118.991C108.795 121.187 109.356 123.625 111.074 125.342L135.057 149.325C136.339 150.607 138.023 151.249 139.709 151.249C141.394 151.249 143.076 150.607 144.361 149.325L149.577 144.106C152.144 141.541 152.144 137.367 149.577 134.799ZM141.325 146.286L146.543 141.067C147.434 140.179 147.434 138.729 146.541 137.839L122.561 113.859C121.668 112.965 120.217 112.965 119.329 113.859L114.11 119.078V119.074C113.216 119.966 113.216 121.416 114.11 122.305L138.093 146.286C138.981 147.18 140.432 147.18 141.325 146.286ZM100.508 136.383H4.29304V4.29475H79.8133V25.9359C79.8133 27.1215 80.7751 28.0816 81.9607 28.0816H100.511V50.4146C95.2652 47.5173 89.2365 45.8653 82.8285 45.8653C66.982 45.8653 53.4503 55.9582 48.3219 70.0536H38.1676C36.9837 70.0536 36.0219 71.0137 36.0219 72.201C36.0219 73.3849 36.982 74.3467 38.1676 74.3467H47.0509C46.4427 76.9912 46.1216 79.745 46.1216 82.5723C46.1216 91.3275 49.2051 99.3789 54.3438 105.696H38.1659C36.982 105.696 36.0202 106.656 36.0202 107.842C36.0202 109.029 36.9803 109.989 38.1659 109.989H58.4506C64.9372 115.76 73.4788 119.276 82.8251 119.276C89.2314 119.276 95.2618 117.622 100.508 114.727V136.383ZM97.9422 23.7868L84.1081 7.88567V23.7868H97.9422ZM82.8251 50.1584C100.694 50.1584 115.236 64.698 115.236 82.5723C115.236 100.441 100.694 114.983 82.8251 114.983C64.9525 114.983 50.4129 100.441 50.4129 82.5723C50.4129 64.698 64.9525 50.1584 82.8251 50.1584ZM111.785 115.326L115.579 111.532L110.596 106.547C109.424 107.902 108.156 109.171 106.802 110.341L111.785 115.326Z" fill="#F08A00"/>
</svg>
