<svg width="152" height="152" viewBox="0 0 152 152" fill="none" xmlns="http://www.w3.org/2000/svg">
<path fill-rule="evenodd" clip-rule="evenodd" d="M70.3252 79.048H77.1569C78.3425 79.048 79.3042 78.0879 79.3042 76.9023V70.0724H86.346V76.9023C86.346 78.0879 87.3078 79.048 88.4934 79.048H95.325V86.0932H88.4934C87.3078 86.0932 86.346 87.0533 86.346 88.2388V95.0688H79.3042V88.2388C79.3042 87.0533 78.3425 86.0932 77.1569 86.0932H70.3252V79.048ZM68.1796 90.3862H75.0112V97.2161C75.0112 98.4017 75.973 99.3618 77.1569 99.3618H88.4934C89.679 99.3618 90.639 98.4017 90.639 97.2161V90.3862H97.4724C98.6562 90.3862 99.6197 89.4261 99.6197 88.2388V76.9023C99.6197 75.7168 98.6562 74.755 97.4724 74.755H90.639V67.925C90.639 66.7395 89.679 65.7777 88.4934 65.7777H77.1569C75.9713 65.7777 75.0112 66.7395 75.0112 67.925V74.755H68.1796C66.994 74.755 66.0322 75.7168 66.0322 76.9023V88.2388C66.0322 89.4261 66.9923 90.3862 68.1796 90.3862ZM82.8251 59.1391C69.9033 59.1391 59.3902 69.647 59.3902 82.5723C59.3902 95.4924 69.9033 106.006 82.8251 106.006C95.7452 106.006 106.258 95.4924 106.258 82.5723C106.258 69.647 95.7452 59.1391 82.8251 59.1391ZM55.0972 82.5723C55.0972 97.8602 67.5355 110.3 82.8251 110.3C98.113 110.3 110.553 97.8602 110.553 82.5723C110.553 67.281 98.113 54.8443 82.8251 54.8443C67.5355 54.8443 55.0972 67.281 55.0972 82.5723ZM146.543 141.067L141.325 146.286C140.432 147.18 138.981 147.18 138.093 146.286L114.11 122.305C113.216 121.416 113.216 119.966 114.11 119.074V119.078L119.329 113.859C120.217 112.965 121.668 112.965 122.561 113.859L146.541 137.839C147.434 138.729 147.434 140.179 146.543 141.067ZM4.29304 136.383H100.508V114.727C95.2618 117.622 89.2314 119.276 82.8251 119.276C73.4788 119.276 64.9372 115.76 58.4506 109.989H38.1659C36.9803 109.989 36.0202 109.029 36.0202 107.842C36.0202 106.656 36.982 105.696 38.1659 105.696H54.3438C49.2051 99.3789 46.1216 91.3275 46.1216 82.5723C46.1216 79.745 46.4427 76.9912 47.0509 74.3467H38.1676C36.982 74.3467 36.0219 73.3849 36.0219 72.201C36.0219 71.0137 36.9837 70.0536 38.1676 70.0536H48.3219C53.4503 55.9582 66.982 45.8653 82.8285 45.8653C89.2365 45.8653 95.2652 47.5173 100.511 50.4146V28.0816H81.9607C80.7751 28.0816 79.8133 27.1215 79.8133 25.9359V4.29475H4.29304V136.383ZM84.1081 7.88567L97.9422 23.7868H84.1081V7.88567ZM115.236 82.5723C115.236 64.698 100.694 50.1584 82.8251 50.1584C64.9525 50.1584 50.4129 64.698 50.4129 82.5723C50.4129 100.441 64.9525 114.983 82.8251 114.983C100.694 114.983 115.236 100.441 115.236 82.5723ZM115.579 111.532L111.785 115.326L106.802 110.341C108.156 109.171 109.424 107.902 110.596 106.547L115.579 111.532ZM149.577 134.799L125.598 110.821C123.876 109.101 121.439 108.542 119.243 109.125L113.23 103.11C117.204 97.2469 119.529 90.1744 119.529 82.5723C119.529 70.5678 113.739 59.8925 104.801 53.1924V25.9359C104.801 25.4166 104.613 24.9177 104.273 24.5282L83.5802 0.739708C83.1736 0.269916 82.5808 0 81.9607 0H2.14567C0.960083 0 0 0.9635 0 2.14737V138.529C0 139.714 0.961792 140.674 2.14567 140.674H102.655C103.841 140.674 104.801 139.714 104.801 138.529V114.416L109.378 118.991C108.795 121.187 109.356 123.625 111.074 125.342L135.057 149.325C136.339 150.607 138.023 151.249 139.709 151.249C141.394 151.249 143.076 150.607 144.361 149.325L149.577 144.106C152.144 141.541 152.144 137.367 149.577 134.799ZM24.2412 111.161H15.0248V101.947H24.2412V111.161ZM26.3886 97.6518C27.5742 97.6518 28.536 98.6118 28.536 99.7974V113.307C28.536 114.492 27.5742 115.454 26.3886 115.454H12.8791C11.6935 115.454 10.7317 114.492 10.7317 113.307V99.7974C10.7317 98.6118 11.6935 97.6518 12.8791 97.6518H26.3886ZM24.2412 75.5152H15.0248V66.2987H24.2412V75.5152ZM26.3886 62.0074C27.5742 62.0074 28.536 62.9692 28.536 64.153V77.6625C28.536 78.8481 27.5742 79.8082 26.3886 79.8082H12.8791C11.6935 79.8082 10.7317 78.8481 10.7317 77.6625V64.153C10.7317 62.9692 11.6935 62.0074 12.8791 62.0074H26.3886ZM36.0202 36.5549C36.0202 35.3676 36.982 34.4075 38.1659 34.4075H91.922C93.1093 34.4075 94.0694 35.3676 94.0694 36.5549C94.0694 37.7405 93.1093 38.7023 91.922 38.7023H38.1659C36.9803 38.7023 36.0202 37.7405 36.0202 36.5549ZM24.2412 39.8725H15.0248V30.656H24.2412V39.8725ZM26.3886 26.363C27.5742 26.363 28.536 27.3231 28.536 28.5087V42.0182C28.536 43.202 27.5742 44.1655 26.3886 44.1655H12.8791C11.6935 44.1655 10.7317 43.202 10.7317 42.0182V28.5087C10.7317 27.3231 11.6935 26.363 12.8791 26.363H26.3886Z" fill="black"/>
<path d="M146.543 141.067L141.325 146.286C140.432 147.18 138.981 147.18 138.093 146.286L114.11 122.305C113.216 121.416 113.216 119.966 114.11 119.074V119.078L119.329 113.859C120.217 112.965 121.668 112.965 122.561 113.859L146.541 137.839C147.434 138.729 147.434 140.179 146.543 141.067Z" fill="#FF0707"/>
<path d="M70.3252 79.048H77.1569C78.3425 79.048 79.3042 78.0879 79.3042 76.9023V70.0724H86.346V76.9023C86.346 78.0879 87.3078 79.048 88.4934 79.048H95.325V86.0932H88.4934C87.3078 86.0932 86.346 87.0533 86.346 88.2388V95.0688H79.3042V88.2388C79.3042 87.0533 78.3425 86.0932 77.1569 86.0932H70.3252V79.048Z" fill="#FF0000"/>
</svg>
