<svg width="137" height="137" viewBox="0 0 137 137" fill="none" xmlns="http://www.w3.org/2000/svg">
<path d="M136.8 107.28V29.52C136.8 13.248 123.552 0 107.28 0H29.52C13.248 0 0 13.248 0 29.52V107.28C0 123.552 13.248 136.8 29.52 136.8H107.28C123.552 136.8 136.8 123.552 136.8 107.28ZM65.376 101.952L43.2 79.776C42.336 78.912 41.904 77.904 41.904 76.752C41.904 75.744 42.336 74.592 43.2 73.728C44.784 72.144 47.52 72.144 49.104 73.728L64.08 88.704V37.728C64.08 35.424 65.952 33.552 68.256 33.552C70.56 33.552 72.432 35.424 72.432 37.728V88.848L87.408 73.872C88.992 72.288 91.728 72.288 93.312 73.872C94.896 75.456 94.896 78.192 93.312 79.776L71.424 101.952C69.696 103.68 67.104 103.68 65.376 101.952Z" fill="#3E4C41"/>
</svg>
