<svg width="119" height="119" viewBox="0 0 119 119" fill="none" xmlns="http://www.w3.org/2000/svg">
<path d="M82.375 66.5184C80.375 61.4016 76.375 57.5328 71.5 55.2864C74 52.416 75.5 48.672 75.5 44.6784C75.5 35.6928 68.25 28.4544 59.25 28.4544C50.25 28.4544 43 35.6928 43 44.6784C43 48.7968 44.5 52.416 47 55.2864C42.125 57.5328 38.125 61.5264 36.125 66.5184C34.5 70.7616 33.375 75.1296 32.75 79.6224C32.5 82.1184 33.125 84.6144 34.75 86.3616C36.375 88.2336 38.625 89.232 41.125 89.232H77.125C79.625 89.232 81.875 88.2336 83.5 86.3616C84.875 84.864 85.625 82.8672 85.625 80.7456C85.625 80.3712 85.625 79.9968 85.5 79.6224C85.25 75.0048 84.125 70.6368 82.375 66.5184ZM59.375 33.9456C65.25 33.9456 70 38.688 70 44.5536C70 50.4192 65.25 55.1616 59.375 55.1616C53.5 55.1616 48.75 50.4192 48.75 44.5536C48.75 38.688 53.5 33.9456 59.375 33.9456ZM79.625 82.6176C79.125 83.2416 78.25 83.616 77.375 83.616H41.375C40.5 83.616 39.625 83.2416 39.125 82.6176C38.625 81.9936 38.375 81.12 38.5 80.2464C39 76.2528 40 72.2592 41.5 68.5152C43.375 63.7728 47.625 60.4032 52.5 59.28C54.625 60.2784 56.875 60.7776 59.375 60.7776C61.875 60.7776 64.125 60.1536 66.25 59.28C71.25 60.4032 75.5 63.8976 77.25 68.5152C78.75 72.2592 79.75 76.2528 80.25 80.2464C80.375 81.12 80.125 81.9936 79.625 82.6176Z" fill="black"/>
<path d="M79.625 82.6176C79.125 83.2416 78.25 83.616 77.375 83.616H41.375C40.5 83.616 39.625 83.2416 39.125 82.6176C38.625 81.9936 38.375 81.12 38.5 80.2464C39 76.2528 40 72.2592 41.5 68.5152C43.375 63.7728 47.625 60.4032 52.5 59.28C54.625 60.2784 56.875 60.7776 59.375 60.7776C61.875 60.7776 64.125 60.1536 66.25 59.28C71.25 60.4032 75.5 63.8976 77.25 68.5152C78.75 72.2592 79.75 76.2528 80.25 80.2464C80.375 81.12 80.125 81.9936 79.625 82.6176Z" fill="#49914A"/>
<path d="M59.375 33.9456C65.25 33.9456 70 38.688 70 44.5536C70 50.4192 65.25 55.1616 59.375 55.1616C53.5 55.1616 48.75 50.4192 48.75 44.5536C48.75 38.688 53.5 33.9456 59.375 33.9456Z" fill="#49914A"/>
<path d="M116 56.5344H111.125C109.75 30.2016 88.5 9.1104 62.125 7.6128V2.7456C62.125 1.248 60.875 0 59.375 0C57.875 0 56.625 1.248 56.625 2.7456V7.6128C30.25 8.9856 9 30.2016 7.625 56.5344H2.75C1.25 56.5344 0 57.7824 0 59.28C0 60.7776 1.25 62.0256 2.75 62.0256H7.625C9 88.3584 30.25 109.45 56.625 110.947V115.814C56.625 117.312 57.875 118.56 59.375 118.56C60.875 118.56 62.125 117.312 62.125 115.814V110.947C88.5 109.574 109.625 88.3584 111.125 62.0256H116C117.5 62.0256 118.75 60.7776 118.75 59.28C118.75 57.7824 117.5 56.5344 116 56.5344ZM62.125 105.331V100.714C62.125 99.216 60.875 97.968 59.375 97.968C57.875 97.968 56.625 99.216 56.625 100.714V105.331C33.375 103.958 14.75 85.3632 13.25 62.0256H17.875C19.375 62.0256 20.625 60.7776 20.625 59.28C20.625 57.7824 19.375 56.5344 17.875 56.5344H13.25C14.625 33.3216 33.25 14.7264 56.625 13.2288V17.7216C56.625 19.2192 57.875 20.4672 59.375 20.4672C60.875 20.4672 62.125 19.2192 62.125 17.7216V13.2288C85.375 14.6016 104 33.1968 105.5 56.5344H101C99.5 56.5344 98.25 57.7824 98.25 59.28C98.25 60.7776 99.5 62.0256 101 62.0256H105.5C104.125 85.2384 85.375 103.958 62.125 105.331Z" fill="black"/>
</svg>
