<svg width="97" height="103" viewBox="0 0 97 103" fill="none" xmlns="http://www.w3.org/2000/svg">
<path fill-rule="evenodd" clip-rule="evenodd" d="M78.3642 66.576L77.4081 95.2974C77.336 97.8658 79.0678 100.181 81.634 100.43C82.4638 100.506 83.2666 100.353 83.9972 100.05L80.8312 70.5526C80.7275 69.6228 81.4085 68.7922 82.3421 68.6884C83.2711 68.5891 84.1009 69.2661 84.2002 70.2005L86.8701 95.0946L87.1723 97.5863C87.4744 100.155 89.2829 102.294 91.8761 102.294C94.4648 102.294 96.5755 100.182 96.5755 97.5863V52.3798L95.3668 47.1933L95.2405 48.0238C94.812 50.6148 93.5808 52.628 91.7678 54.4651L81.2056 65.2624L80.9801 65.4114C80.1728 65.9937 79.2707 66.3955 78.3642 66.576ZM50.8537 77.4229V88.0711C51.1559 88.0214 51.4806 88.0214 51.7828 88.0214C55.1291 88.0214 57.9478 90.3371 58.7236 93.4561H64.9608C65.9169 93.4561 66.6701 94.2099 66.6701 95.1443C66.6701 96.1012 65.9169 96.8551 64.9608 96.8551H58.7236C57.9433 99.9742 55.1291 102.29 51.7828 102.29C47.8592 102.29 44.666 99.094 44.666 95.1443C44.666 92.8287 45.7484 90.7884 47.4577 89.4794V84.4193H33.1206C33.1747 84.8482 33.1747 85.2499 33.1747 85.6787C33.1747 94.8374 25.7558 102.29 16.6012 102.29C7.41899 102.29 0 94.8419 0 85.6787C0 78.3527 4.73098 72.1367 11.3155 69.9204L11.32 50.6411C11.32 50.1355 11.117 49.657 10.7653 49.3321C10.4405 48.98 9.96249 48.7768 9.45739 48.7768H4.65425C3.69814 48.7768 2.94494 48.023 2.94494 47.066C2.94494 46.1362 3.6981 45.3779 4.65425 45.3779H9.45739C10.8916 45.3779 12.2219 45.9557 13.1826 46.9126C14.1387 47.8695 14.716 49.2012 14.716 50.6366V58.9918H42.1769C46.9574 58.9918 50.854 62.8918 50.854 67.6765L50.8537 77.4229ZM16.6053 72.4892C23.8753 72.4892 29.7787 78.4024 29.7787 85.6787C29.7787 92.9777 23.8706 98.8683 16.6053 98.8683C9.31272 98.8683 3.3996 92.9776 3.3996 85.6787C3.39509 78.4023 9.30764 72.4892 16.6053 72.4892ZM61.9928 90.0306C61.9928 89.9313 61.9702 89.8545 61.9702 89.7552L56.2335 70.603C55.8592 69.3437 55.1782 68.1882 54.2446 67.3305C54.2671 67.4569 54.2671 67.5562 54.2671 67.6826L54.2717 84.8981C57.14 85.5797 59.5799 87.4665 61.014 90.0349L61.9928 90.0306ZM18.5345 55.5765L21.678 41.1552C22.6341 38.0361 24.9477 35.9191 28.1633 35.6933C29.0969 35.594 29.796 34.8131 30.3011 33.4048C28.5648 30.0825 28.7181 26.0561 31.4826 19.6594C33.1153 15.6827 37.0659 14.7528 40.3086 15.8317C43.6775 16.5358 46.5954 19.3299 46.0407 23.5865C45.2108 30.4838 43.3256 34.0587 40.1551 36.0722C35.9068 38.0855 41.2105 39.6698 41.8418 41.6334C44.6335 46.2149 46.0405 48.4809 46.0405 48.4809C54.6185 52.5344 58.8941 54.5476 58.8941 54.5476C60.3058 55.3782 61.0047 57.0167 60.6304 58.6011C60.2561 60.1855 58.8941 61.3455 57.257 61.4448L38.297 54.4708L33.5932 46.567C33.291 46.0389 32.7408 45.7139 32.114 45.7364C31.5096 45.7364 30.9549 46.0614 30.6528 46.5941C30.3506 47.1222 30.3777 47.7767 30.6753 48.3049L35.0004 55.5813L18.5342 55.5723L18.5345 55.5765ZM93.2013 37.7555C93.8552 30.2534 93.4042 21.5963 87.645 21.2935L83.8206 21.0182C82.8645 20.9188 82.1113 20.1379 81.6107 18.6528C83.3967 15.2042 83.1937 11.0018 80.3298 4.35747C78.5935 0.254322 74.494 -0.702593 71.1025 0.457469C67.7335 1.59046 65.0681 4.83598 66.1732 9.16481C67.9095 16.1884 70.2952 19.637 73.8175 21.2981C74.2956 22.7833 74.1738 23.8666 73.4657 24.5211C71.5761 26.0333 70.2456 28.3714 71.4768 33.102L76.6316 47.9752L79.121 44.3234L79.4954 37.1012C79.6713 36.3203 80.3748 35.7425 81.182 35.7154C82.0119 35.7154 82.7154 36.2436 82.9184 37.0244L82.4629 45.4564L78.0341 51.9744L74.0834 57.7657C73.0777 59.1515 73.2536 61.0654 74.4577 62.2977L74.5119 62.3474H74.5344L74.557 62.397L74.6066 62.4241L74.6562 62.4738L74.6787 62.5008L74.7013 62.5234L74.7509 62.5505L74.805 62.6001H74.8275L74.8772 62.6498L74.9448 62.6995L74.9989 62.722L75.0215 62.7491L75.0711 62.7762L75.1252 62.7988L75.1703 62.8529H75.2199L75.2695 62.9026H75.2921L75.3462 62.9251L75.4184 62.9748L75.4725 63.0019H75.495L75.5446 63.029L75.5942 63.0515H75.6168L75.6709 63.0786L75.6935 63.1057H75.716L75.7656 63.1283H75.7927L75.8423 63.1554H75.9144L75.9641 63.1824L76.0407 63.205L76.0903 63.2321H76.167L76.2166 63.2592H76.2888L76.3384 63.2817H76.4105C76.5639 63.3043 76.6856 63.3043 76.8164 63.3314H77.0194L77.096 63.3088H77.3621C77.4659 63.2863 77.5651 63.2592 77.6869 63.2321H77.7365L77.759 63.205H77.8357L77.8582 63.1824H77.9349L77.9574 63.1554H78.0071L78.0612 63.1283L78.1333 63.1057L78.1829 63.0786H78.21L78.2596 63.0515H78.2822L78.3047 63.029H78.3273L78.3498 63.0019H78.3724L78.3949 62.9748H78.422C78.5979 62.8755 78.7737 62.7717 78.9496 62.6498L89.2864 52.0783C90.6168 50.7423 91.5233 49.3609 91.8255 47.4968C92.1727 45.61 92.8495 41.8587 93.2013 37.7555ZM76.8298 63.3268H76.9787ZM72.3785 46.1114C72.0267 46.2378 71.6479 46.3371 71.2465 46.3867L57.1888 48.6526C55.2495 48.8783 53.441 47.6731 52.9134 45.7818C52.3586 43.9175 53.2651 41.9315 55.024 41.1009L68.0484 36.0408L68.5761 35.2102L72.3785 46.1114Z" fill="#2D2E2C"/>
</svg>
