<svg width="126" height="157" viewBox="0 0 126 157" fill="none" xmlns="http://www.w3.org/2000/svg">
<path d="M8.3664 119.32L36.9558 90.8214L32.823 86.7017L9.8406 109.599L8.3664 119.32Z" fill="#5A5E57"/>
<path d="M35.1771 77.7473L30.8471 82.0636L41.6098 92.7922L45.9399 88.4759L35.1771 77.7473Z" fill="#5A5E57"/>
<path d="M36.1368 76.0382L47.6532 87.5181C48.3604 88.2123 49.313 88.6014 50.3055 88.6014C51.298 88.6014 52.2506 88.2123 52.9578 87.5181L88.0992 52.5008L71.2656 35.7206L36.1368 70.7505C35.4404 71.4554 35.0501 72.405 35.0501 73.3944C35.0501 74.3837 35.4404 75.3333 36.1368 76.0382Z" fill="#5A5E57"/>
<path d="M98.5535 18.1919L84.3962 32.3043L91.5238 39.4093L105.681 25.2969L98.5535 18.1919Z" fill="#5A5E57"/>
<path d="M96.0372 13.0247L110.88 27.7953C111.626 28.5362 112.637 28.9522 113.69 28.9522C114.743 28.9522 115.753 28.5362 116.5 27.7953C117.239 27.052 117.654 26.0475 117.654 25.0007C117.654 23.9539 117.239 22.9494 116.5 22.2061L101.657 7.43553C101.289 7.06772 100.851 6.77579 100.37 6.57641C99.8887 6.37703 99.3727 6.27411 98.8515 6.27353C98.3302 6.27295 97.814 6.37471 97.3322 6.57301C96.8504 6.77131 96.4125 7.06226 96.0435 7.42925C95.6745 7.79625 95.3817 8.23209 95.1816 8.7119C94.9816 9.19172 94.8784 9.7061 94.8778 10.2257C94.8772 10.7453 94.9793 11.2599 95.1782 11.7402C95.3772 12.2204 95.669 12.6569 96.0372 13.0247Z" fill="#5A5E57"/>
<path d="M71.7192 33.5101L90.3168 52.0361C90.6835 52.4056 91.1202 52.6989 91.6014 52.8991C92.0826 53.0993 92.5989 53.2024 93.1203 53.2024C93.6417 53.2024 94.158 53.0993 94.6392 52.8991C95.1204 52.6989 95.557 52.4056 95.9238 52.0361C96.293 51.6696 96.5859 51.2341 96.7857 50.7546C96.9856 50.275 97.0885 49.7608 97.0885 49.2415C97.0885 48.7222 96.9856 48.208 96.7857 47.7284C96.5859 47.2488 96.293 46.8133 95.9238 46.4469L77.3262 27.9209C76.9647 27.5255 76.5265 27.2073 76.0381 26.9855C75.5497 26.7638 75.0212 26.6431 74.4847 26.6307C73.9481 26.6183 73.4147 26.7145 72.9165 26.9135C72.4183 27.1125 71.9658 27.4101 71.5863 27.7884C71.2068 28.1667 70.9082 28.6178 70.7086 29.1144C70.509 29.611 70.4125 30.1427 70.4249 30.6776C70.4373 31.2124 70.5584 31.7392 70.7809 32.226C71.0033 32.7129 71.3226 33.1497 71.7192 33.5101Z" fill="#5A5E57"/>
</svg>
