<svg width="1024" height="1024" viewBox="0 0 1024 1024" fill="none" xmlns="http://www.w3.org/2000/svg">
<rect width="1024" height="1024" fill="black"/>
<path d="M327 497C409.823 511.102 502.46 535.905 506.996 627.929C507.389 635.98 506.824 646.378 508.754 654.387C521.076 685.179 531.766 703.698 535.33 737.312C538.799 726.661 550.117 693.523 551.341 684.424C557.43 639.082 559.299 611.729 609.906 587.522C637.25 574.44 675.875 559.017 706.5 552C696.83 597.579 702.483 651.992 626 684.424C549.517 716.856 557.463 786.259 523.604 839.008C515.441 851.728 505.788 862.63 492.492 871.364C488.065 874.3 469.682 881.092 468.562 884L445.838 880.673C463.99 878.312 479.197 854.494 492.492 839.008C532.63 792.311 527.566 710.461 482.5 668C474.213 660.201 438.072 642.996 426.367 636.147C343.267 587.522 352.154 551.475 327 497Z" fill="white"/>
<path d="M403.083 555.289C424.074 562.361 451.051 597.081 458.716 618.158C456.081 616.515 429.577 583.769 424.983 578.499C418.012 570.457 410.705 562.713 403.083 555.289Z" fill="#201D1C"/>
<path d="M629.877 608.289L630.453 608.875C628.011 612.929 619.147 621.835 615.243 626.337C607.136 635.691 599.36 645.313 591.904 655.19L591.083 653.931C595.125 640.534 618.165 616.438 629.877 608.289Z" fill="#201C1C"/>
<path d="M528.157 365.131C568.746 362.729 603.557 393.71 605.878 434.286C608.199 474.858 577.167 509.623 536.574 511.884C496.119 514.141 461.443 483.19 459.123 442.712C456.802 402.238 487.702 367.528 528.157 365.131Z" fill="white"/>
<path d="M824.826 398.512C859.628 453.9 878.971 517.593 880.849 582.98C882.727 648.368 867.07 713.066 835.503 770.359C803.937 827.653 757.612 875.454 701.336 908.801C645.06 942.148 580.884 959.825 515.47 959.999C450.057 960.172 385.789 942.835 329.337 909.786C272.885 876.738 226.307 829.182 194.438 772.057C162.569 714.931 146.569 650.317 148.1 584.921C149.632 519.525 168.638 455.73 203.146 400.159L266.575 439.546C239.097 483.796 223.962 534.595 222.743 586.669C221.524 638.742 234.264 690.193 259.641 735.681C285.018 781.169 322.107 819.037 367.058 845.352C412.01 871.668 463.185 885.474 515.273 885.336C567.361 885.198 618.462 871.122 663.274 844.568C708.085 818.015 744.973 779.951 770.109 734.33C795.244 688.708 807.712 637.19 806.217 585.124C804.722 533.057 789.319 482.339 761.606 438.235L824.826 398.512Z" fill="white"/>
<ellipse cx="773" cy="365" rx="162" ry="12" transform="rotate(-20.6683 773 365)" fill="#D9D9D9"/>
<ellipse cx="290.263" cy="369.424" rx="162" ry="12" transform="rotate(18.7452 290.263 369.424)" fill="#D9D9D9"/>
<ellipse cx="532.632" cy="180.174" rx="162" ry="12" transform="rotate(89.0684 532.632 180.174)" fill="#D9D9D9"/>
<ellipse cx="707.398" cy="249.536" rx="162" ry="12" transform="rotate(-46.9282 707.398 249.536)" fill="#D9D9D9"/>
<ellipse cx="362.545" cy="249.503" rx="162" ry="12" transform="rotate(44.1783 362.545 249.503)" fill="#D9D9D9"/>
</svg>
