<svg width="1024" height="1024" viewBox="0 0 1024 1024" fill="none" xmlns="http://www.w3.org/2000/svg">
<path d="M787.748 380.338C823.012 408.582 856.228 487.096 865.742 531.085C884.42 616.668 868.697 706.166 821.966 780.257C771.075 859.691 690.905 915.841 598.852 936.491C497.348 958.294 393.836 943.99 306.088 887.083C228.979 838.038 175.26 759.617 157.383 669.995C138.753 582.69 155.711 491.562 204.499 416.805C211.27 406.442 225.872 382.465 237.431 380.039C238.066 381.276 238.72 381.665 239.471 382.844L242.596 384.719C243.657 385.441 243.221 385.441 243.657 385.441C192.794 441.472 168.351 530.486 171.545 604.892C176.237 714.177 235.232 813.078 329.078 869.174C363.434 889.686 419.614 911.659 459.788 913.878L475.23 916.417C478.692 916.854 482.168 917.174 485.65 917.387C726.339 932.011 917.23 716.63 831.833 478.08C820.963 447.721 799.438 408.862 778.19 385.303C781.859 383.123 782.361 384.214 787.748 380.338Z" fill="#66674D"/>
<path d="M318.083 528.289C400.906 542.39 493.544 567.194 498.079 659.217C498.472 667.268 497.907 677.667 499.838 685.676C512.159 716.467 522.849 734.986 526.413 768.6C529.882 757.95 541.2 724.811 542.424 715.713C548.514 670.371 550.383 643.018 600.99 618.811C628.333 605.728 655.458 600.179 686.083 593.162C676.413 638.741 662.067 693.418 601.1 703.72C511.029 718.954 548.546 817.548 514.688 870.297C506.525 883.016 496.871 893.918 483.575 902.653C479.148 905.588 460.765 912.381 459.645 915.289L436.921 911.962C455.073 909.6 475.696 895.651 488.991 880.165C529.128 833.467 524.2 734.259 479.134 691.798C470.847 683.998 429.155 674.285 417.45 667.436C348.15 637.371 343.237 582.763 318.083 528.289Z" fill="#66674D"/>
<path d="M403.083 594.289C424.074 601.361 451.051 636.081 458.716 657.158C456.081 655.515 429.577 622.769 424.983 617.499C418.012 609.457 410.705 601.713 403.083 594.289Z" fill="white"/>
<path d="M629.877 640.289L630.453 640.875C628.011 644.929 619.147 653.835 615.243 658.337C607.136 667.691 599.36 677.313 591.904 687.19L591.083 685.931C595.125 672.534 618.165 648.438 629.877 640.289Z" fill="white"/>
<path d="M334.73 130.775C341.14 137.518 373.154 196.543 378.754 207.086C408.638 263.346 441.57 320.698 469.612 377.732C457.295 368.653 340.997 153.005 334.73 130.775Z" fill="#FF9A00"/>
<path d="M688.671 136.165C689.13 149.764 571.434 352.609 559.391 372.255C558.324 363.591 675.007 154.019 688.671 136.165Z" fill="#FF9A00"/>
<path d="M759.167 240.811L759.647 241.22C756.948 251.696 589.194 377.47 568.458 393.213L567.978 392.546C573.716 385.409 585.087 376.767 592.351 370.599C633.887 335.32 677.759 302.727 720.671 269.141C732.938 259.534 746.239 249.383 759.167 240.811Z" fill="#FF9A00"/>
<path d="M425.663 140.337C431.647 145.474 488.511 347.876 491.69 369.118C480.458 353.876 429.984 167.185 425.663 140.337Z" fill="#FF9A00"/>
<path d="M216.952 321.3C254.479 333.857 294.225 349.969 331.583 364.027C364.954 376.583 416.053 393.425 447.194 409.746C375.811 388.36 304.306 360.475 235.501 331.939C229.643 329.51 223.316 326.315 217.403 324.278L216.952 321.3Z" fill="#FF9A00"/>
<path d="M262.157 240.485C278.508 244.758 431.089 368.54 455.341 390.458C442.876 387.011 279.656 257.744 262.157 240.485Z" fill="#FF9A00"/>
<path d="M803.082 322.021L804.671 322.114L804.372 323.154C744.223 353.695 644.799 388.575 579.476 408.976L578.474 408.547C583.124 405.772 587.935 403.936 592.906 401.856C625.162 388.374 658.218 377.086 690.89 364.706C712.767 356.442 734.57 347.997 756.298 339.371C771.071 333.538 788.042 326.309 803.082 322.021Z" fill="#FF9A00"/>
<path d="M598.634 141.455C598.804 153.954 578.943 225.335 573.951 242.002C562.143 281.316 550.474 332.27 536.884 370.165C534.26 353.774 589.098 165.17 598.634 141.455Z" fill="#FF9A00"/>
<path d="M513.375 77L514.964 95.1761C516.927 170.872 517.642 258.733 514.996 334.174L511.722 329.729L512.01 110.073C511.295 98.8134 512.031 88.1659 513.375 77Z" fill="#FF9A00"/>
<path d="M513.375 77L514.964 95.1761L513.556 93.5932C512.084 99.6486 512.778 104.117 512.01 110.073C511.295 98.8134 512.031 88.1659 513.375 77Z" fill="#FF9A00"/>
<path d="M583.732 426.371C599.071 420.41 641.855 411.805 660.138 407.392C687.658 400.648 715.231 394.118 742.858 387.804C753.364 385.393 779.807 377.649 788.276 380.658C782.89 384.534 782.388 383.443 778.719 385.623C774.719 387.148 739.188 393.789 732.138 395.559C683.306 407.813 633.567 418.879 583.732 426.371Z" fill="#FF9A00"/>
<path d="M512.46 406.32C521.974 405.757 530.134 413.019 530.678 422.53C531.222 432.04 523.948 440.189 514.433 440.719C504.95 441.248 496.822 433.993 496.278 424.505C495.734 415.018 502.977 406.882 512.46 406.32Z" fill="#FF9A00"/>
<path d="M237.96 380.359C251.565 379.234 409.577 418.81 431.811 425.556C404.544 424.348 350.692 410.865 323.208 403.926C296.84 397.269 270.399 391.907 244.186 385.761L240 383.164C239.249 381.985 238.595 381.597 237.96 380.359Z" fill="#FF9A00"/>
<path d="M242.486 421.582C260.255 420.713 355.923 425.502 370.255 431.229C348.931 433.262 308.585 427.917 286.166 426.335C276.752 425.67 250.541 423.441 242.486 421.582Z" fill="#FF9A00"/>
<path d="M748.212 422.006C758.004 420.827 768.084 420.893 777.93 421.373C771.775 422.675 768.148 423.397 761.834 424C725.663 426.898 697.887 428.62 661.674 429.963L659.711 428.32C686.484 424.978 720.906 423.444 748.212 422.006Z" fill="#FF9A00"/>
<path d="M511.722 329.729L514.996 334.174C515.092 342.885 514.228 351.621 513.524 360.312C512.127 348.528 511.892 341.545 511.722 329.729Z" fill="#F29B17"/>
<path d="M217.403 324.278C211.214 321.499 207.646 319.985 201.927 316.316C207.351 317.861 211.7 319.392 216.952 321.3L217.403 324.278Z" fill="#F29B17"/>
<path d="M661.674 429.963C658.1 430.625 653.354 431.302 649.994 429.874C652.682 428.11 656.308 428.455 659.711 428.32L661.674 429.963Z" fill="#F29B17"/>
</svg>
