<svg width="142" height="142" viewBox="0 0 142 142" fill="none" xmlns="http://www.w3.org/2000/svg">
<path fill-rule="evenodd" clip-rule="evenodd" d="M56.3953 0C31.145 25.3362 0 53.7621 0 84.9247C0 116.087 25.4263 141.6 56.3953 141.6C76.2788 141.6 93.7869 131.183 103.905 115.558C80.5019 114.057 62.026 94.5471 62.026 70.8C62.026 53.409 71.8798 38.3132 86.3086 30.8978C76.8947 20.1277 66.2491 9.799 56.3953 0ZM106.72 35.4C126.164 35.4 142 51.202 142 70.8C142 90.3097 126.164 106.2 106.72 106.2C87.2763 106.2 71.4399 90.3097 71.4399 70.8C71.4399 51.202 87.2763 35.4 106.72 35.4ZM92.6431 75.4788C90.0037 75.4788 87.8922 73.3601 87.8922 70.8C87.8922 68.1516 90.0037 66.0329 92.6431 66.0329H102.057V56.6753C102.057 54.0269 104.081 51.9082 106.72 51.9082C109.359 51.9082 111.383 54.0269 111.383 56.6753V66.0329H120.797C123.436 66.0329 125.548 68.1516 125.548 70.8C125.548 73.3601 123.436 75.4788 120.797 75.4788H111.383V84.9247C111.383 87.5731 109.359 89.6918 106.72 89.6918C104.081 89.6918 102.057 87.5731 102.057 84.9247V75.4788H92.6431ZM51.9083 110.614C54.5477 110.614 56.6592 112.733 56.6592 115.381C56.6592 117.941 54.5477 120.06 51.9083 120.06C42.8463 120.06 34.6642 116.352 28.6815 110.349C22.6989 104.346 19.0037 96.1362 19.0037 87.0434C19.0037 84.395 21.1152 82.2763 23.7546 82.2763C26.3061 82.2763 28.4176 84.395 28.4176 87.0434C28.4176 93.4878 31.057 99.4025 35.368 103.64C39.5911 107.966 45.4858 110.614 51.9083 110.614Z" fill="#FB0000"/>
</svg>
