<svg xmlns="http://www.w3.org/2000/svg" xmlns:xlink="http://www.w3.org/1999/xlink" xml:space="preserve" version="1.1" style="shape-rendering:geometricPrecision;text-rendering:geometricPrecision;image-rendering:optimizeQuality;" viewBox="0 0 1.614 2.005" x="0px" y="0px" fill-rule="evenodd" clip-rule="evenodd"><defs><style type="text/css">
   
    .fil0 {fill:none}
    .fil1 {fill:black}
   
  </style></defs><g><g><rect class="fil0" x="0.005" width="1.604" height="1.604"/><path class="fil1" d="M0.641 0c-0.287,0.287 -0.641,0.609 -0.641,0.962 0,0.353 0.289,0.642 0.641,0.642 0.226,0 0.425,-0.118 0.54,-0.295 -0.266,-0.017 -0.476,-0.238 -0.476,-0.507 0,-0.197 0.112,-0.368 0.276,-0.452 -0.107,-0.122 -0.228,-0.239 -0.34,-0.35zm0.572 0.401c0.221,0 0.401,0.179 0.401,0.401 0,0.221 -0.18,0.401 -0.401,0.401 -0.221,0 -0.401,-0.18 -0.401,-0.401 0,-0.222 0.18,-0.401 0.401,-0.401zm-0.16 0.454c-0.03,0 -0.054,-0.024 -0.054,-0.053 0,-0.03 0.024,-0.054 0.054,-0.054l0.107 0 0 -0.106c0,-0.03 0.023,-0.054 0.053,-0.054 0.03,0 0.053,0.024 0.053,0.054l0 0.106 0.107 0c0.03,0 0.054,0.024 0.054,0.054 0,0.029 -0.024,0.053 -0.054,0.053l-0.107 0 0 0.107c0,0.03 -0.023,0.054 -0.053,0.054 -0.03,0 -0.053,-0.024 -0.053,-0.054l0 -0.107 -0.107 0zm-0.463 0.398c0.03,0 0.054,0.024 0.054,0.054 0,0.029 -0.024,0.053 -0.054,0.053 -0.103,0 -0.196,-0.042 -0.264,-0.11 -0.068,-0.068 -0.11,-0.161 -0.11,-0.264 0,-0.03 0.024,-0.054 0.054,-0.054 0.029,0 0.053,0.024 0.053,0.054 0,0.073 0.03,0.14 0.079,0.188 0.048,0.049 0.115,0.079 0.188,0.079z"/></g></g><text x="0" y="16.604" fill="#000000" font-size="5px" font-weight="bold" font-family="'Helvetica Neue', Helvetica, Arial-Unicode, Arial, Sans-serif">Created by Deemak Daksina</text><text x="0" y="21.604" fill="#000000" font-size="5px" font-weight="bold" font-family="'Helvetica Neue', Helvetica, Arial-Unicode, Arial, Sans-serif">from the Noun Project</text></svg>