<svg width="129" height="161" viewBox="0 0 129 161" fill="none" xmlns="http://www.w3.org/2000/svg">
<path d="M55.8328 86.5375L4.03125 61.5825V111.493L55.8328 86.5375Z" fill="#EA72D6"/>
<path d="M124.969 111.493V61.5825L73.1672 86.5375L124.969 111.493Z" fill="#EA72D6"/>
<path d="M68.5312 88.7512L64.5 90.7637L60.4688 88.7512L4.03125 115.92V118.737C4.03125 122.159 6.65156 124.775 10.0781 124.775H118.922C122.348 124.775 124.969 122.159 124.969 118.737V115.92L68.5312 88.7512Z" fill="#EA72D6"/>
<path d="M12.0938 42.4637L7.25625 45.885C5.24062 47.495 4.03125 49.91 4.03125 52.325V56.9537L12.0938 60.7775V42.4637Z" fill="#EA72D6"/>
<path d="M121.744 45.885L116.906 42.4637V60.9787L124.969 57.155V52.325C124.969 49.91 123.759 47.495 121.744 45.885Z" fill="#EA72D6"/>
<path d="M16.125 4.02502V62.9913L64.5 86.3363L112.875 62.9913V4.02502H16.125ZM86.8734 42.8663C86.0672 45.08 84.8578 46.69 83.2453 48.0988C81.6328 49.3063 80.625 50.3125 78.6094 50.3125C74.5781 50.3125 72.5625 48.3 71.9578 46.2875H71.5547C69.5391 48.3 67.1203 49.91 63.8953 49.91C60.6703 49.91 58.05 48.9038 56.2359 47.0925C54.4219 45.2813 53.4141 42.4638 53.4141 39.0425C53.4141 35.2188 54.6234 31.9988 57.0422 29.785C59.4609 27.37 62.6859 26.1625 66.7172 26.1625C68.3297 26.1625 69.9422 26.3638 71.9578 26.565C73.9734 26.7663 75.3844 27.1688 76.5938 27.5713L75.9891 41.055C75.9891 43.6713 76.5938 44.8788 78.0047 44.8788C79.2141 44.8788 80.0203 44.0738 80.8266 42.2625C81.4312 40.4513 81.8344 38.2375 81.8344 35.6213C81.8344 32.6025 81.2297 29.9863 80.0203 27.7725C78.8109 25.5588 76.9969 23.7475 74.7797 22.54C72.5625 21.3325 69.9422 20.7288 67.1203 20.7288C63.4922 20.7288 60.2672 21.5338 57.4453 22.9425C54.6234 24.5525 52.6078 26.565 51.1969 29.5838C49.7859 32.4013 48.9797 35.8225 48.9797 39.445C48.9797 44.4763 50.3906 48.3 53.0109 51.1175C55.6312 53.7338 59.6625 55.1425 64.7016 55.1425C66.7172 55.1425 68.7328 54.9413 71.1516 54.5388C73.5703 54.1363 75.9891 52.9288 78.2062 52.1238V58.1613C74.175 59.7713 69.7406 60.375 64.9031 60.375C57.8484 60.375 52.4063 58.5638 48.5766 54.9413C44.7469 51.3188 42.7313 46.0863 42.7313 39.6463C42.7313 35.0175 43.7391 30.9925 45.7547 27.37C47.7703 23.7475 50.5922 20.7288 54.2203 18.7163C57.8484 16.7038 62.0813 15.4963 66.9188 15.4963C70.95 15.4963 74.5781 16.3013 77.8031 17.9113C81.0281 19.5213 83.4469 21.9363 85.2609 24.955C87.075 27.9738 87.8812 31.5963 87.8812 35.42C88.0828 38.2375 87.6797 40.6525 86.8734 42.8663Z" fill="#EA72D6"/>
<path d="M61.8796 33.2062C60.6703 34.615 59.864 36.6275 59.864 39.0425C59.864 42.8662 61.4765 44.8787 64.7015 44.8787C66.314 44.8787 67.5234 44.275 68.5312 43.0675C69.3374 41.86 69.9421 40.0487 70.1437 37.4325L70.5468 31.395C69.539 31.1937 68.5312 30.9925 67.3218 30.9925C64.9031 30.9925 63.089 31.7975 61.8796 33.2062Z" fill="#EA72D6"/>
</svg>
