<svg width="104" height="91" viewBox="0 0 104 91" fill="none" xmlns="http://www.w3.org/2000/svg">
<path fill-rule="evenodd" clip-rule="evenodd" d="M29.4573 12.2664C30.1806 6.73326 33.7828 3.1221 38.903 3.1221C42.5146 3.1221 46.6022 4.91116 50.5995 8.31349C51.1848 8.81176 52.0365 8.81176 52.6266 8.31349C57.9704 3.76741 63.4856 2.10178 67.7589 3.73424C71.0233 4.98222 73.2217 8.09045 73.7689 12.2664C74.1401 15.0472 73.7689 18.1886 72.7173 21.4676H57.261C56.6471 21.4676 56.0904 21.8283 55.8382 22.3882L52.907 28.9131L46.5544 14.7581C46.0024 13.5338 44.256 13.5338 43.7041 14.7581L40.6919 21.468H30.5086C29.457 18.189 29.0861 15.0471 29.4573 12.2664ZM69.6902 28.206C70.3849 26.9959 70.994 25.7905 71.527 24.5899L58.2744 24.5852L54.3295 33.3689C53.7776 34.5932 52.0312 34.5932 51.4792 33.3689L45.1267 19.2139L43.1281 23.6651C42.8759 24.2251 42.3144 24.5904 41.7053 24.5904H31.6982C35.4146 32.9612 42.6142 40.6491 51.6179 47.3403C59.7787 41.2662 65.8554 34.8352 69.6902 28.206ZM83.5044 21.3109C84.4513 21.3109 85.2223 22.0844 85.2223 23.0288C85.2223 23.9731 84.4514 24.7467 83.5044 24.7467C82.5432 24.7467 81.7723 23.9732 81.7723 23.0288C81.7723 22.0797 82.5479 21.3109 83.5044 21.3109ZM18.4267 24.5852H28.2959C28.9764 26.2887 29.8139 28.0208 30.8274 29.7576C35.0244 37.0181 41.7006 44.0074 50.6899 50.5334C51.2323 50.932 51.9889 50.932 52.5266 50.5334C61.5202 44.0085 68.1912 37.0186 72.3891 29.7576C73.3884 28.0208 74.2401 26.2935 74.9206 24.5852H78.9034C79.5554 26.4881 81.3683 27.8642 83.5001 27.8642C86.1649 27.8642 88.3491 25.6955 88.3491 23.0287C88.3491 20.3618 86.1649 18.1931 83.5001 18.1931C81.3683 18.1931 79.5553 19.5645 78.9034 21.4721H76.0008C76.962 18.103 77.2666 14.8571 76.8668 11.858C76.1625 6.51471 73.2408 2.49064 68.8725 0.820269C63.7856 -1.13012 57.5377 0.43589 51.6084 5.11002C45.6793 0.440518 39.4313 -1.12538 34.3443 0.820269C29.9761 2.49064 27.059 6.50997 26.35 11.858C25.9503 14.8571 26.2596 18.0981 27.2161 21.4721H18.4223C17.5562 21.4721 16.8519 22.1697 16.8519 23.0334C16.8567 23.8876 17.5606 24.5852 18.4267 24.5852ZM100.092 17.7044C100.13 17.1159 99.9449 16.556 99.5451 16.1289C98.5221 15.0137 96.2523 15.2652 95.8144 17.0305L90.5943 37.8196C89.7806 41.0892 88.277 43.7134 85.8501 46.0719L80.4539 51.3297C81.5436 53.6834 80.8679 56.5402 78.8408 58.1773L65.2934 69.1058C65.0126 69.3431 64.67 69.4523 64.3226 69.4523C62.8475 69.4523 62.1861 67.6016 63.3376 66.681L76.8753 55.7477C77.4225 55.3111 77.7556 54.6847 77.8365 53.9824C78.0982 51.6715 75.3716 50.2098 73.5586 51.6668L58.1072 64.1514C54.881 66.7471 53.1773 70.3062 53.1773 74.4346V87.4039L72.1067 87.4087C73.0536 87.4087 73.8388 86.6399 73.8531 85.7004C73.9577 78.9667 74.919 75.8728 80.6721 69.6284C85.6542 64.2329 90.784 61.8033 94.3815 55.3969C98.3325 48.3623 99.0386 35.6646 99.6083 25.4192C99.6108 25.3737 99.6134 25.3282 99.6159 25.2828C99.6172 25.2588 99.6184 25.2349 99.6197 25.2109C99.761 22.509 99.8943 19.9621 100.092 17.7044ZM50.0568 87.4092V74.4399C50.0568 70.3114 48.3533 66.7571 45.1269 64.1567L29.6755 51.6721C28.543 50.7609 26.8774 50.9365 25.9733 52.0612C25.0454 53.2095 25.2453 54.8562 26.3588 55.7531L39.8964 66.6864C40.5769 67.2274 40.6673 68.2097 40.1343 68.8788C39.5919 69.5432 38.5974 69.6523 37.9216 69.1114L24.384 58.1828C22.3473 56.5361 21.6716 53.7079 22.7709 51.3352L17.3747 46.0774C14.9621 43.7189 13.4441 41.0947 12.6305 37.8251L7.41994 17.036C7.18201 16.1012 6.36831 15.47 5.39276 15.47H5.19291C3.97949 15.47 3.03258 16.5092 3.12772 17.7099C3.32758 19.9829 3.46082 22.5596 3.60833 25.2788C3.61075 25.3223 3.61318 25.3659 3.6156 25.4095C4.1853 35.6606 4.89092 48.3574 8.83324 55.3928C12.4116 61.7658 17.5937 64.2525 22.5573 69.6244C28.3104 75.8692 29.2715 78.968 29.3763 85.6964C29.3906 86.636 30.1757 87.4046 31.1227 87.4046L50.0568 87.4092ZM101.849 14.0174C99.189 11.1133 93.8262 12.0623 92.7745 16.2762L87.5544 37.0605C86.8882 39.7463 85.6509 41.9008 83.6619 43.8369L78.4275 48.9428C76.3433 47.5478 73.5595 47.6568 71.5942 49.2466L56.1294 61.7312C54.1451 63.3304 52.6366 65.2191 51.6136 67.345C50.5905 65.2191 49.0821 63.3304 47.0978 61.7312L31.633 49.2466C29.6677 47.6568 26.884 47.5478 24.7997 48.9428L19.5653 43.8369C17.581 41.9007 16.3391 39.7511 15.6634 37.0605L10.4528 16.2762C9.4107 12.0956 4.08112 11.0896 1.37834 14.0174C0.393332 15.0756 -0.101506 16.5182 0.0173885 17.9656C1.03095 30.1465 0.726408 47.2973 6.1178 56.915C10.0864 63.9903 15.2399 66.3013 20.2511 71.7345C25.6711 77.6139 26.1518 79.9724 26.2469 85.7474C26.285 88.3811 28.4691 90.5212 31.1244 90.5212L72.1052 90.526C74.7558 90.526 76.94 88.3811 76.9827 85.7474C77.0779 79.9723 77.5537 77.6138 82.9785 71.7345C87.994 66.2962 93.1475 63.99 97.1118 56.915C102.503 47.2961 102.199 30.1465 103.212 17.9656C103.331 16.5182 102.841 15.0804 101.851 14.0174L101.849 14.0174Z" fill="black"/>
<path d="M29.4573 12.2664C30.1806 6.73326 33.7828 3.1221 38.903 3.1221C42.5146 3.1221 46.6022 4.91116 50.5995 8.31349C51.1848 8.81176 52.0365 8.81176 52.6266 8.31349C57.9704 3.76741 63.4856 2.10178 67.7589 3.73424C71.0233 4.98222 73.2217 8.09045 73.7689 12.2664C74.1401 15.0472 73.7689 18.1886 72.7173 21.4676H57.261C56.6471 21.4676 56.0904 21.8283 55.8382 22.3882L52.907 28.9131L46.5544 14.7581C46.0024 13.5338 44.256 13.5338 43.7041 14.7581L40.6919 21.468H30.5086C29.457 18.189 29.0861 15.0471 29.4573 12.2664Z" fill="#FF0000"/>
<path d="M69.6902 28.206C70.3849 26.9959 70.994 25.7905 71.527 24.5899L58.2744 24.5852L54.3295 33.3689C53.7776 34.5932 52.0312 34.5932 51.4792 33.3689L45.1267 19.2139L43.1281 23.6651C42.8759 24.2251 42.3144 24.5904 41.7053 24.5904H31.6982C35.4146 32.9612 42.6142 40.6491 51.6179 47.3403C59.7787 41.2662 65.8554 34.8352 69.6902 28.206Z" fill="#FF0000"/>
<path d="M50.0568 87.4092V74.4399C50.0568 70.3114 48.3533 66.7571 45.1269 64.1567L29.6755 51.6721C28.543 50.7609 26.8774 50.9365 25.9733 52.0612C25.0454 53.2095 25.2453 54.8562 26.3588 55.7531L39.8964 66.6864C40.5769 67.2274 40.6673 68.2097 40.1343 68.8788C39.5919 69.5432 38.5974 69.6523 37.9216 69.1114L24.384 58.1828C22.3473 56.5361 21.6716 53.7079 22.7709 51.3352L17.3747 46.0774C14.9621 43.7189 13.4441 41.0947 12.6305 37.8251L7.41994 17.036C7.18201 16.1012 6.36831 15.47 5.39276 15.47H5.19291C3.97949 15.47 3.03258 16.5092 3.12772 17.7099C3.32758 19.9829 3.46082 22.5596 3.60833 25.2788L3.6156 25.4095C4.1853 35.6606 4.89092 48.3574 8.83324 55.3928C12.4116 61.7658 17.5937 64.2525 22.5573 69.6244C28.3104 75.8692 29.2715 78.968 29.3763 85.6964C29.3906 86.636 30.1757 87.4046 31.1227 87.4046L50.0568 87.4092Z" fill="#FF7504" fill-opacity="0.39"/>
<path d="M100.092 17.7044C100.13 17.1159 99.9449 16.556 99.5451 16.1289C98.5221 15.0137 96.2523 15.2652 95.8144 17.0305L90.5943 37.8196C89.7806 41.0892 88.277 43.7134 85.8501 46.0719L80.4539 51.3297C81.5436 53.6834 80.8679 56.5402 78.8408 58.1773L65.2934 69.1058C65.0126 69.3431 64.67 69.4523 64.3226 69.4523C62.8475 69.4523 62.1861 67.6016 63.3376 66.681L76.8753 55.7477C77.4225 55.3111 77.7556 54.6847 77.8365 53.9824C78.0982 51.6715 75.3716 50.2098 73.5586 51.6668L58.1072 64.1514C54.881 66.7471 53.1773 70.3062 53.1773 74.4346V87.4039L72.1067 87.4087C73.0536 87.4087 73.8388 86.6399 73.8531 85.7004C73.9577 78.9667 74.919 75.8728 80.6721 69.6284C85.6542 64.2329 90.784 61.8033 94.3815 55.3969C98.3325 48.3623 99.0386 35.6646 99.6083 25.4192L99.6159 25.2828L99.6197 25.2109C99.761 22.509 99.8943 19.9621 100.092 17.7044Z" fill="#FFC99D"/>
</svg>
