<svg xmlns="http://www.w3.org/2000/svg" viewBox="0 0 64 80" x="0px" y="0px"><title>1</title><path d="M50.44873,47.96533c-.05414-.04144-5.27112-4.06506-11.19574-9.58032,5.464-7.328,8.17212-12.33057,8.25629-15.26489-.1071-1.5001-1.113-11.08154-4.848-14.18395-4.49522-5.3404-15.486-7.48367-21.176-.26186a28.1427,28.1427,0,0,0-5.07538,15.58242,3.41138,3.41138,0,0,0,.29471,1.46739A80.05732,80.05732,0,0,0,24.61713,38.7569a106.35964,106.35964,0,0,1-11.06879,9.83294,1.00053,1.00053,0,0,0-.21924,1.3462l6.42871,9.61962a1.00016,1.00016,0,0,0,1.5625.12647c.05084-.05457,4.91931-5.28186,10.37342-11.79334,3.11517,3.77442,6.63311,7.73352,10.50891,11.80115a1.00747,1.00747,0,0,0,1.55321-.13039l6.91261-10.24168A1.00056,1.00056,0,0,0,50.44873,47.96533Zm-4.938-24.92187c-.04916,1.73638-1.45288,5.51011-7.72308,13.95825-1.73029-1.64911-3.34461-3.26868-4.82019-4.83618a60.58284,60.58284,0,0,0,8.08722-13.88428,35.88368,35.88368,0,0,0,1.83111-5.76874C44.71991,16.10443,45.471,22.15845,45.51074,23.04346ZM31.5882,30.67365c-3.789-4.19389-6.59619-7.91591-8.141-11.10673,2.97986-4.36957,9.79159-6.40575,15.46728-1.36415A58.94912,58.94912,0,0,1,31.5882,30.67365Zm.25409-24.66c4.3955.21143,8.29785,2.77783,9.23876,4.14209a24.65661,24.65661,0,0,1-1.38964,6.09638c-4.25183-3.27118-8.02149-3.35248-10.51172-2.78388a13.02923,13.02923,0,0,0-6.66815,4.01679c-.93508-2.502-1.06174-4.5983-.32648-6.23847A10.35219,10.35219,0,0,1,31.84229,6.01367ZM20.71484,57.38818l-5.20654-7.791a107.8627,107.8627,0,0,0,10.30042-9.20081c1.42968,1.94409,2.96771,3.92847,4.59149,5.922C26.23468,51.30487,22.37512,55.57556,20.71484,57.38818Zm22.08008.01953c-7.87278-7.94091-21.13-24.7661-24.25853-32.48748-.412-3.16809.652-6.51434,1.44585-8.94025.89234,6.07835,10.42839,17.10524,17.248,23.25328,4.94215,4.65346,9.51881,8.35854,11.25954,9.73744Z"/><text x="0" y="79" fill="#000000" font-size="5px" font-weight="bold" font-family="'Helvetica Neue', Helvetica, Arial-Unicode, Arial, Sans-serif">Created by sentya irma</text><text x="0" y="84" fill="#000000" font-size="5px" font-weight="bold" font-family="'Helvetica Neue', Helvetica, Arial-Unicode, Arial, Sans-serif">from the Noun Project</text></svg>