<svg width="119" height="176" viewBox="0 0 119 176" fill="none" xmlns="http://www.w3.org/2000/svg">
<path d="M58.6716 6.15501C72.4763 6.81837 84.7321 14.8704 87.6871 19.1508C87.0507 25.6858 85.5842 32.1133 83.3228 38.2782C69.9694 28.0149 58.1303 27.7598 50.3094 29.5438C42.2062 31.5146 34.8993 35.9117 29.3673 42.1465C26.4305 34.2964 26.0327 27.7193 28.3419 22.5733C31.3465 17.2697 35.7841 12.9176 41.1474 10.0143C46.5107 7.11104 52.5835 5.77361 58.6716 6.15501Z" fill="#EA72D6"/>
<path d="M93.0697 167.404C68.3443 142.489 26.7083 89.7002 16.8828 65.4744C15.5889 55.5345 18.9305 45.0357 21.4237 37.4244C24.2262 56.4952 54.1753 91.0921 75.5932 110.382C91.1146 124.982 105.488 136.606 110.955 140.933L93.0697 167.404Z" fill="#EA72D6"/>
<path d="M23.7245 167.343L7.3727 142.898C18.7622 133.976 29.5676 124.334 39.7225 114.031C44.2125 120.13 49.0429 126.356 54.1426 132.611C41.0602 148.256 28.9388 161.655 23.7245 167.343Z" fill="#EA72D6"/>
<path d="M101.599 59.586C101.445 65.0339 97.0361 76.874 77.3438 103.38C71.9096 98.206 66.8396 93.1246 62.2054 88.2065C72.5702 74.8769 81.1116 60.2274 87.6043 44.6446C90.028 38.784 91.9518 32.7293 93.3551 26.5452C99.1154 37.8148 101.474 56.8093 101.599 59.586Z" fill="#EA72D6"/>
<path fill-rule="evenodd" clip-rule="evenodd" d="M117.107 137.778C116.937 137.648 100.553 125.024 81.9459 107.72C99.1062 84.7285 107.611 69.033 107.876 59.8266C107.539 55.12 104.38 25.0582 92.65 15.3244C78.5322 -1.43109 44.0143 -8.1556 26.1442 14.5028C16.0937 28.8589 10.5451 45.8772 10.2043 63.3927C10.1679 64.9768 10.484 66.5493 11.1299 67.9966C18.0923 82.3855 26.4134 96.0777 35.9801 108.887C25.1239 119.965 13.5081 130.273 1.2172 139.738C0.588973 140.224 0.168637 140.931 0.0408705 141.714C-0.0868962 142.498 0.0874001 143.301 0.528649 143.962L20.7188 174.143C20.982 174.536 21.3308 174.865 21.7391 175.104C22.1473 175.344 22.6045 175.488 23.0764 175.526C23.5484 175.565 24.0228 175.496 24.4643 175.325C24.9058 175.154 25.303 174.886 25.626 174.54C25.7857 174.369 41.0757 157.968 58.2051 137.538C67.9886 149.38 79.0372 161.802 91.2096 174.564C91.5357 174.9 91.9323 175.16 92.3708 175.324C92.8094 175.488 93.2789 175.553 93.7456 175.514C94.2123 175.474 94.6644 175.332 95.0694 175.097C95.4744 174.862 95.8222 174.541 96.0877 174.155L117.798 142.022C118.245 141.36 118.422 140.552 118.294 139.764C118.166 138.975 117.741 138.265 117.107 137.778ZM77.3438 103.38C97.0361 76.874 101.445 65.0339 101.599 59.586C101.474 56.8093 99.1154 37.8148 93.3551 26.5452C91.9518 32.7293 90.028 38.784 87.6043 44.6446C81.1116 60.2274 72.5702 74.8769 62.2054 88.2065C66.8396 93.1246 71.9096 98.206 77.3438 103.38ZM32.3058 48.6784C37.1575 58.6896 45.9738 70.3674 57.8736 83.5258C67.122 71.4763 74.8498 58.3349 80.8827 44.3984C63.0575 28.5804 41.6644 34.9689 32.3058 48.6784ZM87.6871 19.1508C84.7321 14.8704 72.4763 6.81837 58.6716 6.15501C52.5835 5.77361 46.5107 7.11104 41.1474 10.0143C35.7841 12.9176 31.3465 17.2697 28.3419 22.5733C26.0327 27.7193 26.4305 34.2964 29.3673 42.1465C34.8993 35.9117 42.2062 31.5146 50.3094 29.5438C58.1303 27.7598 69.9694 28.0149 83.3228 38.2782C85.5842 32.1133 87.0507 25.6858 87.6871 19.1508ZM7.3727 142.898L23.7245 167.343C28.9388 161.655 41.0602 148.256 54.1426 132.611C49.0429 126.356 44.2125 120.13 39.7225 114.031C29.5676 124.334 18.7622 133.976 7.3727 142.898ZM16.8828 65.4744C26.7083 89.7002 68.3443 142.489 93.0697 167.404L110.955 140.933C105.488 136.606 91.1146 124.982 75.5932 110.382C54.1753 91.0921 24.2262 56.4952 21.4237 37.4244C18.9305 45.0357 15.5889 55.5345 16.8828 65.4744Z" fill="#F641D7"/>
</svg>
