<svg width="179" height="139" viewBox="0 0 179 139" fill="none" xmlns="http://www.w3.org/2000/svg">
<path d="M89.0274 99.7657C96.138 99.7657 101.902 94.0133 101.902 86.9173C101.902 79.8214 96.138 74.069 89.0274 74.069C81.9169 74.069 76.1526 79.8214 76.1526 86.9173C76.1526 94.0133 81.9169 99.7657 89.0274 99.7657Z" fill="#FF0000"/>
<path d="M114.566 33.0844V22.5952H63.4891V33.0844H80.8108C81.2115 31.2062 82.2462 29.5221 83.7419 28.3139C85.2375 27.1056 87.1035 26.4464 89.0278 26.4464C90.9521 26.4464 92.8181 27.1056 94.3137 28.3139C95.8094 29.5221 96.8441 31.2062 97.2448 33.0844H114.566Z" fill="#FF0000"/>
<path d="M152.842 7.76443H133.644V16.63H152.842V7.76443Z" fill="#FF0000"/>
<path d="M23.92 124.549H154.139C153.356 102.981 139.263 82.7285 119.49 74.2823C121.558 79.2459 122.377 84.6393 121.874 89.9914C121.372 95.3435 119.564 100.491 116.608 104.986C113.653 109.48 109.64 113.183 104.919 115.773C100.199 118.362 94.9146 119.758 89.5286 119.84C84.1426 119.922 78.8185 118.686 74.0214 116.241C69.2242 113.796 65.1 110.216 62.009 105.813C58.918 101.411 56.9542 96.3203 56.2892 90.9859C55.6241 85.6515 56.2781 80.2357 58.194 75.2117C38.6709 84.624 24.7498 104.488 23.92 124.549Z" fill="#FF0000"/>
<path d="M89.0275 53.9951C91.2188 53.9946 93.4047 54.2115 95.553 54.6429L91.6173 42.7675C89.9339 43.3125 88.121 43.3125 86.4376 42.7675L82.502 54.6429C84.6502 54.2115 86.8362 53.9946 89.0275 53.9951Z" fill="#FF0000"/>
<path d="M93.6365 34.8113C93.6396 33.901 93.372 33.0101 92.8674 32.2517C92.3629 31.4932 91.6442 30.9012 90.8023 30.5506C89.9604 30.2001 89.0332 30.1067 88.1381 30.2824C87.243 30.4581 86.4202 30.8949 85.774 31.5375C85.1279 32.1801 84.6873 32.9996 84.5082 33.8923C84.3291 34.7849 84.4194 35.7105 84.7678 36.5519C85.1161 37.3933 85.7069 38.1126 86.4652 38.6187C87.2235 39.1248 88.1152 39.3949 89.0274 39.395C90.2473 39.3957 91.4176 38.9135 92.2817 38.0542C93.1457 37.1949 93.633 36.0286 93.6365 34.8113Z" fill="#FF0000"/>
<path d="M165.742 132.437C165.741 131.348 165.307 130.304 164.536 129.535C163.764 128.765 162.718 128.332 161.627 128.33H16.429C15.3381 128.332 14.2922 128.765 13.5208 129.535C12.7493 130.304 12.3154 131.348 12.3141 132.437V138.405H165.742V132.437Z" fill="#FF0000"/>
<path d="M4.44192 16.6299H13.0188V7.76328H4.44192C3.8586 7.76328 3.28099 7.87793 2.74207 8.1007C2.20315 8.32346 1.71348 8.64998 1.30101 9.0616C0.888537 9.47322 0.561348 9.96188 0.33812 10.4997C0.114893 11.0375 0 11.6139 0 12.196C0 12.7782 0.114893 13.3546 0.33812 13.8924C0.561348 14.4302 0.888537 14.9188 1.30101 15.3305C1.71348 15.7421 2.20315 16.0686 2.74207 16.2914C3.28099 16.5141 3.8586 16.6288 4.44192 16.6288V16.6299Z" fill="#FF0000"/>
<path d="M89.0275 116.058C94.803 116.058 100.449 114.349 105.251 111.147C110.053 107.945 113.796 103.394 116.006 98.0689C118.216 92.744 118.795 86.8846 117.668 81.2318C116.541 75.5789 113.76 70.3864 109.676 66.3109C105.592 62.2354 100.389 59.46 94.7244 58.3356C89.0599 57.2111 83.1884 57.7882 77.8525 59.9939C72.5166 62.1995 67.956 65.9346 64.7473 70.7269C61.5386 75.5192 59.8259 81.1533 59.8259 86.917C59.8347 94.643 62.914 102.05 68.3885 107.513C73.863 112.977 81.2854 116.05 89.0275 116.058ZM76.128 106.252C75.3935 106.985 74.4272 107.441 73.3936 107.542C72.36 107.644 71.3231 107.385 70.4595 106.809C69.596 106.233 68.9593 105.376 68.6579 104.384C68.3564 103.392 68.4089 102.327 68.8064 101.369C69.2039 100.412 69.9218 99.6213 70.8377 99.1328C71.7537 98.6442 72.8111 98.4877 73.8297 98.6899C74.8483 98.8921 75.7652 99.4405 76.4241 100.242C77.083 101.043 77.4431 102.047 77.4432 103.084C77.4439 103.672 77.3281 104.255 77.1023 104.799C76.8765 105.343 76.5453 105.837 76.1276 106.253L76.128 106.252ZM72.3636 86.917C72.3636 83.628 73.341 80.4128 75.1721 77.6782C77.0032 74.9435 79.6058 72.8121 82.6507 71.5535C85.6957 70.2949 89.0462 69.9657 92.2787 70.6073C95.5111 71.249 98.4803 72.8329 100.811 75.1586C103.141 77.4843 104.728 80.4474 105.371 83.6732C106.014 86.899 105.684 90.2426 104.423 93.2813C103.162 96.3199 101.026 98.9171 98.2854 100.744C95.5451 102.572 92.3233 103.547 89.0275 103.547C84.6095 103.542 80.3738 101.788 77.2498 98.6707C74.1258 95.5531 72.3686 91.3262 72.3636 86.9173V86.917ZM89.0275 114.209C88.1396 114.209 87.2716 113.946 86.5334 113.454C85.7951 112.962 85.2197 112.262 84.8799 111.443C84.5401 110.625 84.4512 109.724 84.6245 108.855C84.7977 107.986 85.2252 107.188 85.8531 106.561C86.4809 105.934 87.2808 105.508 88.1517 105.335C89.0225 105.162 89.9251 105.251 90.7454 105.59C91.5658 105.929 92.2669 106.503 92.7602 107.24C93.2535 107.977 93.5168 108.843 93.5168 109.729C93.5154 110.917 93.0421 112.055 92.2004 112.895C91.3588 113.735 90.2177 114.208 89.0275 114.209ZM108.276 106.252C107.433 107.091 106.292 107.562 105.101 107.562C103.911 107.562 102.77 107.091 101.927 106.252C101.299 105.626 100.871 104.827 100.698 103.958C100.525 103.089 100.614 102.188 100.954 101.37C101.294 100.551 101.869 99.8512 102.607 99.3589C103.346 98.8666 104.214 98.6038 105.102 98.6038C105.99 98.6038 106.858 98.8666 107.596 99.3589C108.334 99.8512 108.91 100.551 109.25 101.37C109.589 102.188 109.678 103.089 109.505 103.958C109.332 104.827 108.904 105.626 108.276 106.252H108.276ZM111.759 82.5632C112.647 82.5631 113.515 82.8259 114.254 83.3181C114.992 83.8104 115.568 84.5101 115.907 85.3288C116.247 86.1475 116.336 87.0483 116.163 87.9175C115.99 88.7866 115.562 89.585 114.934 90.2116C114.307 90.8383 113.507 91.265 112.636 91.4379C111.765 91.6108 110.862 91.5221 110.042 91.183C109.221 90.8439 108.52 90.2697 108.027 89.5328C107.533 88.796 107.27 87.9298 107.27 87.0436C107.271 85.8557 107.745 84.7169 108.586 83.8769C109.428 83.037 110.569 82.5645 111.759 82.5632ZM101.927 67.8345C102.771 67.0051 103.909 66.5423 105.094 66.5469C106.278 66.5515 107.413 67.0232 108.251 67.8591C109.089 68.695 109.561 69.8274 109.566 71.0096C109.571 72.1918 109.107 73.3279 108.276 74.1704C107.432 74.9997 106.293 75.4624 105.109 75.4577C103.924 75.4531 102.789 74.9813 101.952 74.1454C101.114 73.3094 100.641 72.177 100.637 70.9948C100.632 69.8126 101.096 68.6766 101.927 67.8341L101.927 67.8345ZM89.0275 59.878C89.9155 59.8779 90.7836 60.1406 91.5219 60.6329C92.2603 61.1252 92.8358 61.8249 93.1757 62.6436C93.5155 63.4623 93.6045 64.3632 93.4313 65.2324C93.258 66.1015 92.8304 66.8999 92.2025 67.5265C91.5746 68.1531 90.7746 68.5799 89.9036 68.7527C89.0327 68.9256 88.13 68.8368 87.3096 68.4977C86.4892 68.1585 85.788 67.5842 85.2947 66.8473C84.8014 66.1105 84.5381 65.2442 84.5382 64.358C84.5395 63.1702 85.0129 62.0315 85.8545 61.1916C86.6961 60.3517 87.8372 59.8793 89.0275 59.878ZM69.779 67.8345C70.4068 67.2087 71.2064 66.7826 72.0767 66.6102C72.9471 66.4378 73.8491 66.5267 74.6688 66.8658C75.4885 67.2049 76.1891 67.7788 76.6819 68.5152C77.1748 69.2515 77.4379 70.1171 77.4379 71.0026C77.4379 71.8881 77.1748 72.7537 76.6819 73.4901C76.1891 74.2264 75.4885 74.8004 74.6688 75.1394C73.8491 75.4785 72.9471 75.5675 72.0767 75.395C71.2064 75.2226 70.4068 74.7966 69.779 74.1707C68.9384 73.3298 68.4662 72.1905 68.4662 71.0026C68.4662 69.8148 68.9384 68.6754 69.779 67.8345ZM66.2954 82.5632C67.1834 82.5631 68.0514 82.8259 68.7898 83.3181C69.5282 83.8104 70.1037 84.5101 70.4435 85.3288C70.7834 86.1475 70.8724 87.0483 70.6992 87.9175C70.526 88.7866 70.0984 89.585 69.4706 90.2116C68.8427 90.8383 68.0427 91.265 67.1718 91.4379C66.3009 91.6108 65.3981 91.5221 64.5777 91.183C63.7573 90.8439 63.0561 90.2697 62.5628 89.5328C62.0694 88.796 61.8061 87.9298 61.8061 87.0436C61.8074 85.8558 62.2808 84.717 63.1224 83.8771C63.964 83.0371 65.1051 82.5646 66.2954 82.5632Z" fill="#FF0000"/>
<path d="M44.4113 7.76443H26.3496V16.63H44.4113V7.76443Z" fill="#FF0000"/>
<path d="M129.855 5.58038H48.2003V18.8144H129.855V5.58038Z" fill="#FF0000"/>
<path d="M166.173 16.63H173.614C174.198 16.63 174.775 16.5153 175.314 16.2925C175.853 16.0698 176.343 15.7432 176.755 15.3316C177.168 14.92 177.495 14.4313 177.718 13.8935C177.941 13.3557 178.056 12.7793 178.056 12.1972C178.056 11.6151 177.941 11.0387 177.718 10.5009C177.495 9.96304 177.168 9.47438 176.755 9.06276C176.343 8.65114 175.853 8.32463 175.314 8.10186C174.775 7.87909 174.198 7.76443 173.614 7.76443H166.173V16.63Z" fill="#FF0000"/>
<path d="M153.903 29.8499C152.447 29.849 151.05 30.4245 150.019 31.4502C148.988 32.4758 148.406 33.8678 148.402 35.3207V40.7657H170.665V35.3207C170.661 33.8678 170.079 32.4759 169.048 31.4503C168.017 30.4247 166.62 29.8491 165.165 29.8499H161.309V23.7497C161.644 23.4833 161.914 23.1452 162.1 22.7605C162.286 22.3758 162.383 21.9542 162.384 21.527V2.86959C162.384 2.10853 162.081 1.37863 161.542 0.840482C161.002 0.30233 160.271 0 159.508 0C158.746 0 158.014 0.30233 157.475 0.840482C156.936 1.37863 156.633 2.10853 156.633 2.86959V21.527C156.633 21.9128 156.712 22.2945 156.865 22.6488C157.018 23.0032 157.241 23.3228 157.522 23.5882V29.8511L153.903 29.8499Z" fill="#FF0000"/>
<path d="M173.277 44.5454H145.895C145.212 44.5454 144.658 45.0983 144.658 45.7803V46.751C144.658 47.433 145.212 47.9859 145.895 47.9859H173.277C173.96 47.9859 174.514 47.433 174.514 46.751V45.7803C174.514 45.0983 173.96 44.5454 173.277 44.5454Z" fill="#FF0000"/>
<path d="M43.4348 37.8363H42.5087C41.9385 37.8363 41.4762 38.2977 41.4762 38.8667V53.6567C41.4762 54.2258 41.9385 54.6871 42.5087 54.6871H43.4348C44.005 54.6871 44.4673 54.2258 44.4673 53.6567V38.8667C44.4673 38.2977 44.005 37.8363 43.4348 37.8363Z" fill="#FF0000"/>
<path d="M12.4904 27.2919C11.9879 27.2919 11.506 27.4911 11.1507 27.8457C10.7954 28.2002 10.5958 28.6811 10.5958 29.1826C10.5958 29.684 10.7954 30.1649 11.1507 30.5194C11.506 30.874 11.9879 31.0732 12.4904 31.0732H18.3236V38.7975C18.3236 41.4765 19.6142 45.4238 23.2361 48.4677C25.8286 50.6468 30.3929 52.9568 37.6872 52.1034V41.4164C37.1079 41.4542 36.5399 41.4777 35.9878 41.4777C31.8263 41.4777 28.4355 40.3754 25.8756 38.1838C23.7572 36.3149 22.2839 33.8265 21.6656 31.0732H26.0256C26.5281 31.0732 27.01 30.874 27.3653 30.5194C27.7206 30.1649 27.9202 29.684 27.9202 29.1826C27.9202 28.6811 27.7206 28.2002 27.3653 27.8457C27.01 27.4911 26.5281 27.2919 26.0256 27.2919H21.5796V23.6702C21.8872 23.4036 22.1339 23.0742 22.3032 22.7043C22.4724 22.3344 22.5602 21.9325 22.5605 21.5259V2.86959C22.5605 2.10853 22.2576 1.37863 21.7183 0.840482C21.1791 0.30233 20.4477 0 19.685 0C18.9224 0 18.191 0.30233 17.6517 0.840482C17.1125 1.37863 16.8095 2.10853 16.8095 2.86959V21.527C16.8099 21.9337 16.8977 22.3355 17.0669 22.7054C17.2361 23.0753 17.4829 23.4047 17.7905 23.6714V27.2931L12.4904 27.2919Z" fill="#FF0000"/>
</svg>
